<?xml version="1.0" encoding="utf-8"?>
<!-- Generator: Adobe Illustrator 22.1.0, SVG Export Plug-In . SVG Version: 6.00 Build 0)  -->
<svg version="1.1" id="Layer_1" xmlns="http://www.w3.org/2000/svg" xmlns:xlink="http://www.w3.org/1999/xlink" x="0px" y="0px"
	 viewBox="0 0 223.2 223.2" style="enable-background:new 0 0 223.2 223.2;" xml:space="preserve">
<style type="text/css">
	.st0{display:none;fill:#FFFFFF;stroke:#000000;stroke-miterlimit:10;}
	.st1{display:none;fill:#FFFFFF;stroke:#000000;stroke-width:5;stroke-miterlimit:10;}
</style>
<circle class="st0" cx="111.6" cy="111.6" r="111.6"/>
<title>mic</title>
<path class="st0" d="M99.9,39.9h23.5c4,0,7.3,3.3,7.3,7.3v83c0,4-3.3,7.3-7.3,7.3H99.9c-4,0-7.3-3.3-7.3-7.3v-83
	C92.6,43.2,95.8,39.9,99.9,39.9z"/>
<path class="st0" d="M62.8,164.6v-12.5c0-2.1,1.7-3.9,3.9-3.9h89.8c2.1,0,3.9,1.7,3.9,3.9v12.5c0,2.1-1.7,3.9-3.9,3.9H66.7
	C64.6,168.4,62.8,166.7,62.8,164.6z"/>
<circle class="st1" cx="111.6" cy="111.6" r="73"/>
<g id="dcQjj3.tif">
	
		<image style="overflow:visible;" width="512" height="512" id="Layer_0" xlink:href="58E987C022791CC8.png"  transform="matrix(0.4217 0 0 0.4217 3.6346 3.6346)">
	</image>
</g>
</svg>
